<svg id="background" xmlns="http://www.w3.org/2000/svg" viewBox="0 0 501.64 395.92"><defs><style>.cls-1{fill:#ddecff;}</style></defs><title>background</title><path class="cls-1" d="M466.43,104.92H452.69v151c0,23.53-13.67,44.79-41.13,44.79H142.66v7.18c0,20.8,23.65,41.77,47.93,41.77H396.18l78.65,46.24-11.42-46.24h3c24.26,0,35.21-20.95,35.21-41.77V140.77C501.64,120,490.69,104.92,466.43,104.92Z"/><path class="cls-1" d="M125.7,176.9q-3.36-.63-13.52-.64H103.1v26.41h10.29q11.1,0,14.85-1.46a12.33,12.33,0,0,0,5.87-4.57,12.5,12.5,0,0,0,2.13-7.24,12.09,12.09,0,0,0-3-8.38A13,13,0,0,0,125.7,176.9Z"/><path class="cls-1" d="M371.41,0H59.1C31.62,0,0,24.41,0,47.94V237.22c0,21.67,26.79,37.32,52.49,39.72L35.77,340.43l107.17-63H371.41c27.47,0,52.84-16.66,52.84-40.17V47.94C424.25,24.41,398.88,0,371.41,0ZM152.49,203.56a25.53,25.53,0,0,1-7.9,9.17,27.34,27.34,0,0,1-9.75,4.41q-6.72,1.34-19.48,1.34H103.1v35.1H84.32V160.52h30.15q17.13,0,22.34,1.4A24.32,24.32,0,0,1,150.2,171q5.4,7,5.4,18.12Q155.6,197.72,152.49,203.56Zm4.06-76.65a43,43,0,0,1-8.31-3.49q-.9-.45-12.51-8.25a50.06,50.06,0,0,1-20.25,4q-21.45,0-33.61-12.64T69.72,71.05q0-22.78,12.18-35.45T115,22.94q20.7,0,32.82,12.66t12.13,35.45a61.28,61.28,0,0,1-3.37,21.2,44.05,44.05,0,0,1-8.12,13.52,61.06,61.06,0,0,0,15,7.87Zm32.18,126.67H170.9V160.52h17.83Zm3.11-136H174.39V24.52h28.12L219.39,88l16.7-63.48h28.18v93.06H246.82V44.33l-18.48,73.25H210.25L191.84,44.33Zm76.11,136H251.39V243.49a26.11,26.11,0,0,1-9.68,8.5A27.19,27.19,0,0,1,229,255.1a24.76,24.76,0,0,1-12.19-3,17.59,17.59,0,0,1-7.8-8.38q-2.42-5.4-2.42-14.92V186.17h17.84v31q0,14.22,1,17.43a9.46,9.46,0,0,0,3.58,5.07,11,11,0,0,0,6.6,1.88,14,14,0,0,0,8.19-2.51,12.74,12.74,0,0,0,4.95-6.22q1.33-3.72,1.34-18.19V186.17H268Zm67.41-5.14q-7.74,6.66-22.91,6.66-13.77,0-21.8-5.58a25.72,25.72,0,0,1-10.51-15.18l17.9-2.73a13.1,13.1,0,0,0,4.64,7.91q3.48,2.7,9.77,2.7,6.92,0,10.41-2.54a5.67,5.67,0,0,0,2.35-4.76,4.67,4.67,0,0,0-1.27-3.37c-.89-.84-2.88-1.63-6-2.35q-21.59-4.75-27.36-8.69a17.37,17.37,0,0,1-8-15.17,18.71,18.71,0,0,1,6.91-14.73q6.93-6,21.46-6,13.85,0,20.57,4.51t9.26,13.33L324,205.59a10.42,10.42,0,0,0-4.09-6c-2-1.4-4.88-2.09-8.6-2.09q-7.05,0-10.1,2a4.24,4.24,0,0,0-2,3.62,4,4,0,0,0,1.78,3.24q2.42,1.77,16.66,5t19.9,7.94q5.6,4.75,5.59,13.26Q343.11,241.77,335.36,248.44Zm14-143a26.58,26.58,0,0,1-12.56,10.38q-8.13,3.4-20.25,3.4-17.65,0-27.11-8.16T278.17,87.3l18.28-1.78q1.65,9.21,6.7,13.52t13.62,4.32q9.08,0,13.68-3.84t4.6-9a8.49,8.49,0,0,0-1.94-5.62c-1.29-1.54-3.54-2.89-6.76-4q-3.3-1.14-15-4.06-15.1-3.75-21.2-9.21a24.18,24.18,0,0,1-8.57-18.72,23.89,23.89,0,0,1,4-13.3,25.26,25.26,0,0,1,11.61-9.43q7.59-3.24,18.32-3.23,17.52,0,26.37,7.68t9.3,20.5l-18.79.82q-1.2-7.17-5.17-10.31t-11.9-3.14q-8.19,0-12.83,3.36a6.78,6.78,0,0,0-3,5.78,7.16,7.16,0,0,0,2.79,5.65q3.56,3,17.27,6.22t20.28,6.69a26.11,26.11,0,0,1,10.28,9.46q3.72,6,3.72,14.82A27.4,27.4,0,0,1,349.39,105.45Z"/><path class="cls-1" d="M114.85,39q-11.49,0-18.63,8T89.08,71.05q0,16.32,7.14,24.41a23.06,23.06,0,0,0,18.06,8.09,22.07,22.07,0,0,0,7.68-1.33,53.85,53.85,0,0,0-11.62-5.84l5.27-10.73a64,64,0,0,1,17.71,9.52,28.14,28.14,0,0,0,5.43-10.28,48.42,48.42,0,0,0,1.81-13.84q0-16.12-7.11-24.09T114.85,39Z"/></svg>