<svg id="qms-plus-background" xmlns="http://www.w3.org/2000/svg" viewBox="0 0 501.64 496.25"><defs><style>.cls-1{fill:#ddecff;}.cls-2{fill:#fff;}</style></defs><title>qms-plus-background</title><path class="cls-1" d="M475.86,219.05H462.12v151c0,23.53-13.67,44.79-41.14,44.79H152.09V422c0,20.8,23.64,41.77,47.92,41.77h205.6l78.65,46.24-11.42-46.24h3c24.26,0,35.21-20.95,35.21-41.77V254.9C511.07,234.11,500.12,219.05,475.86,219.05Z" transform="translate(-9.43 -13.8)"/><path class="cls-1" d="M380.84,114.13H68.53c-27.48,0-59.1,24.41-59.1,47.94V351.35c0,21.67,26.79,37.32,52.49,39.72L45.2,454.56l107.17-63H380.84c27.47,0,52.84-16.66,52.84-40.18V162.07C433.68,138.54,408.31,114.13,380.84,114.13Z" transform="translate(-9.43 -13.8)"/><path class="cls-1" d="M80.06,82a50.75,50.75,0,0,0,12.39,6.47l-5.7,10.92a34.87,34.87,0,0,1-6.84-2.87q-.73-.36-10.3-6.79A41.18,41.18,0,0,1,53,93q-17.67,0-27.67-10.4t-10-29.2q0-18.76,10-29.18T52.53,13.8q17,0,27,10.43t10,29.18a50.32,50.32,0,0,1-2.77,17.45A36.19,36.19,0,0,1,80.06,82ZM67.63,73.26A23.27,23.27,0,0,0,72.1,64.8a39.81,39.81,0,0,0,1.49-11.39q0-13.27-5.86-19.83A19.54,19.54,0,0,0,52.43,27a19.59,19.59,0,0,0-15.34,6.59q-5.88,6.57-5.88,19.8,0,13.43,5.88,20.09A19,19,0,0,0,52,80.16a18.22,18.22,0,0,0,6.32-1.1,45.11,45.11,0,0,0-9.56-4.81l4.33-8.83A52.76,52.76,0,0,1,67.63,73.26Z" transform="translate(-9.43 -13.8)"/><path class="cls-1" d="M101.43,91.7V15.11h23.15l13.9,52.25,13.74-52.25h23.19V91.7H161.05V31.41L145.84,91.7H131L115.8,31.41V91.7Z" transform="translate(-9.43 -13.8)"/><path class="cls-1" d="M186.85,66.78l15.05-1.46q1.36,7.58,5.51,11.13T218.62,80q7.47,0,11.26-3.16a9.42,9.42,0,0,0,3.79-7.39,7,7,0,0,0-1.6-4.63,12.69,12.69,0,0,0-5.56-3.31q-2.72-.94-12.38-3.35-12.44-3.07-17.45-7.57a20,20,0,0,1-7.06-15.42,19.68,19.68,0,0,1,3.32-10.94,20.77,20.77,0,0,1,9.56-7.76,38.27,38.27,0,0,1,15.08-2.67q14.41,0,21.7,6.33T246.94,37l-15.47.68q-1-5.89-4.25-8.49t-9.8-2.59q-6.73,0-10.55,2.77a5.59,5.59,0,0,0-2.46,4.76,5.9,5.9,0,0,0,2.3,4.65q2.92,2.46,14.21,5.12t16.69,5.51a21.53,21.53,0,0,1,8.47,7.78,22.86,22.86,0,0,1,3,12.2,22.61,22.61,0,0,1-3.65,12.33,21.94,21.94,0,0,1-10.35,8.55q-6.69,2.79-16.67,2.79-14.52,0-22.31-6.71T186.85,66.78Z" transform="translate(-9.43 -13.8)"/><path class="cls-1" d="M291.87,91.7V15.11h24.82q14.1,0,18.39,1.15a20.07,20.07,0,0,1,11,7.5q4.44,5.77,4.44,14.91A24.92,24.92,0,0,1,348,50.53a20.89,20.89,0,0,1-6.5,7.55,22.41,22.41,0,0,1-8,3.63,87.45,87.45,0,0,1-16,1.1H307.33V91.7Zm15.46-63.63V49.8h8.47q9.13,0,12.22-1.2a10.14,10.14,0,0,0,4.84-3.76,10.35,10.35,0,0,0,1.75-6A9.88,9.88,0,0,0,332.15,32a10.7,10.7,0,0,0-6.22-3.4,74,74,0,0,0-11.12-.52Z" transform="translate(-9.43 -13.8)"/><path class="cls-1" d="M363.13,91.7V15.11h14.68V91.7Z" transform="translate(-9.43 -13.8)"/><path class="cls-1" d="M429.38,91.7V83.4a21.36,21.36,0,0,1-8,7A22.39,22.39,0,0,1,411,93a20.34,20.34,0,0,1-10-2.46,14.5,14.5,0,0,1-6.43-6.89q-2-4.44-2-12.28V36.22h14.68V61.71q0,11.71.81,14.35A7.85,7.85,0,0,0,411,80.24a9.13,9.13,0,0,0,5.43,1.54,11.51,11.51,0,0,0,6.74-2.07,10.44,10.44,0,0,0,4.08-5.12q1.1-3,1.1-15V36.22H443V91.7Z" transform="translate(-9.43 -13.8)"/><path class="cls-1" d="M453.05,75.87l14.73-2.24a10.8,10.8,0,0,0,3.82,6.5q2.86,2.22,8,2.22c3.8,0,6.65-.69,8.57-2.09a4.65,4.65,0,0,0,1.93-3.92,3.9,3.9,0,0,0-1-2.77c-.73-.69-2.37-1.34-4.91-1.93q-17.78-3.92-22.52-7.16A14.27,14.27,0,0,1,455.09,52a15.36,15.36,0,0,1,5.69-12.12Q466.48,35,478.44,35q11.38,0,16.93,3.71a19,19,0,0,1,7.63,11l-13.85,2.56a8.59,8.59,0,0,0-3.37-5q-2.47-1.73-7.08-1.72-5.79,0-8.31,1.62a3.48,3.48,0,0,0-1.67,3,3.24,3.24,0,0,0,1.47,2.66q2,1.47,13.71,4.13t16.38,6.53q4.59,3.91,4.6,10.92,0,7.62-6.38,13.11T479.64,93q-11.34,0-17.94-4.6A21.17,21.17,0,0,1,453.05,75.87Z" transform="translate(-9.43 -13.8)"/><path class="cls-2" d="M132.39,279.42h30.19V301q0,13.1-2.26,20.68a30.87,30.87,0,0,1-8.54,13.58,44.1,44.1,0,0,1-15.95,9.46l-5.91-12.46q9.14-3,13-8.38T147,309.61H132.39Zm0-53.71V195.53h30.19v30.18Z" transform="translate(-9.43 -13.8)"/><path class="cls-2" d="M197.28,267.61V237.42h59.29v30.19Z" transform="translate(-9.43 -13.8)"/><path class="cls-2" d="M265.6,355.91q8.91-19.12,12.57-29.33a218.57,218.57,0,0,0,6.76-23.52,244.21,244.21,0,0,0,4.62-25.3,197.36,197.36,0,0,0,1.51-24.55,206.94,206.94,0,0,0-5.48-48.39q-5.49-22.83-20.2-55.38H285.9a197.52,197.52,0,0,1,25.19,49,159.44,159.44,0,0,1,9,52.53q0,22.46-7.09,48.12-8.06,28.79-26.53,56.83Z" transform="translate(-9.43 -13.8)"/></svg>